# xmcd CD database file
#
# Track frame offsets:
#	150
#	13262
#	28925
#	38868
#	52249
#	64909
#	77189
#	87874
#	100181
#	114573
#	124866
#	135253
#	145252
#	158680
#	173338
#	188578
#	202090
#	216133
#	231381
#	240898
#
# Disc length: 3364 seconds
#
# Revision: 0
# Processed by: cddbd v1.5.1PL2 Copyright (c) Steve Scherf et al.
# Submitted via: CDex 1.51
#
DISCID=130d2214
DTITLE=Peggy Lee - Simply The Best - Disc 2
DYEAR=2004
DGENRE=Jazz
TTITLE0=It's A Good Day
TTITLE1=Apples Peaches And Cherries
TTITLE2=My Heart Belongs To Daddy
TTITLE3=Trav'lin Light
TTITLE4=You Was
TTITLE5=Swinging On A Star
TTITLE6=Nice Work If You Can Get It
TTITLE7=Ghost Riders In The Sky (A Cowboy Legend)
TTITLE8=Don't Smoke In Bed
TTITLE9=Someday Sweetheart
TTITLE10=This Can't Be Love
TTITLE11=Lady Is A Tramp
TTITLE12=Somebody Loves Me
TTITLE13=I'm Gonna Wash That Man Right Outta My Hair
TTITLE14=I'm Confessin'
TTITLE15=Them There Eyes
TTITLE16='Deed I Do
TTITLE17=Sans Souci
TTITLE18=Shanghai
TTITLE19=Sugar
EXTD=YEAR: 2004
EXTT0=
EXTT1=
EXTT2=
EXTT3=
EXTT4=
EXTT5=
EXTT6=
EXTT7=
EXTT8=
EXTT9=
EXTT10=
EXTT11=
EXTT12=
EXTT13=
EXTT14=
EXTT15=
EXTT16=
EXTT17=
EXTT18=
EXTT19=
PLAYORDER=
